<?xml version="1.0" encoding="utf-8"?>
<svg version="1.1" xmlns:xlink="http://www.w3.org/1999/xlink" width="1067px" height="10px" preserveAspectRatio="xMinYMid meet" viewBox="578 476  1067 8" xmlns="http://www.w3.org/2000/svg">
  <path d="M 583 539  L 583 485  A 5 5 0 0 1 588 480 L 1613 480  A 3 3 0 0 1 1616 477 A 3 3 0 0 1 1619 480 L 1635 480  A 5 5 0 0 1 1640 485 L 1640 566  A 3 3 0 0 1 1643 569 A 3 3 0 0 1 1640 572 L 1640 747  A 5 5 0 0 0 1645 752 L 1674 752  " stroke-width="2" stroke="#ff3399" fill="none" stroke-opacity="0.56078431372549" />
</svg>