<?xml version="1.0" encoding="utf-8"?>
<svg version="1.1" xmlns:xlink="http://www.w3.org/1999/xlink" width="10px" height="288px" preserveAspectRatio="xMidYMin meet" viewBox="1543 442  8 288" xmlns="http://www.w3.org/2000/svg">
  <path d="M 726 539  L 726 483  A 3 3 0 0 0 729 480 A 3 3 0 0 0 726 477 L 726 452  A 5 5 0 0 1 731 447 L 1542 447  A 5 5 0 0 1 1547 452 L 1547 477  A 3 3 0 0 1 1550 480 A 3 3 0 0 1 1547 483 L 1547 720  A 5 5 0 0 0 1552 725 L 1637 725  A 3 3 0 0 1 1640 722 A 3 3 0 0 1 1643 725 L 1997 725  A 5 5 0 0 1 2002 730 L 2002 763  A 5 5 0 0 0 2007 768 L 2096 768  " stroke-width="2" stroke="#ff3399" fill="none" stroke-opacity="0.56078431372549" />
</svg>