<?xml version="1.0" encoding="utf-8"?>
<svg version="1.1" xmlns:xlink="http://www.w3.org/1999/xlink" width="46px" height="10px" preserveAspectRatio="xMinYMid meet" viewBox="2035 916  46 8" xmlns="http://www.w3.org/2000/svg">
  <path d="M 972 541  L 972 715  A 5 5 0 0 0 977 720 L 1544 720  A 3 3 0 0 1 1547 717 A 3 3 0 0 1 1550 720 L 1637 720  A 3 3 0 0 1 1640 717 A 3 3 0 0 1 1643 720 L 2035 720  A 5 5 0 0 1 2040 725 L 2040 765  A 3 3 0 0 1 2043 768 A 3 3 0 0 1 2040 771 L 2040 915  A 5 5 0 0 0 2045 920 L 2071 920  A 5 5 0 0 1 2076 925 L 2076 932  " stroke-width="2" stroke="#ff3399" fill="none" stroke-opacity="0.56078431372549" />
</svg>