<?xml version="1.0" encoding="utf-8"?>
<svg version="1.1" xmlns:xlink="http://www.w3.org/1999/xlink" width="24px" height="32px" xmlns="http://www.w3.org/2000/svg">
  <g transform="matrix(1 0 0 1 -1335 -555 )">
    <path d="M 24 11.2  C 24 14.5079965704547  22.7689303526095 17.2688510754024  20.985520086421 19.9350495339052  C 20.8158042464813 20.1887701243981  20.6412355284738 20.4414248899376  20.4622568108457 20.6936129650782  C 17.9714126362774 24.2033106888326  14.6264288043672 27.6226186593878  12 32  C 9.20383425343471 27.3397237557243  5.59323695663306 23.7653562450966  3.06594611267246 20.011738799399  C 2.89221121515288 19.7537018806115  2.72359566980867 19.4948178852256  2.56071597477853 19.2346758144821  C 1.02561010448721 16.7828931055676  0 14.2193599093365  0 11.2  C 0 7.16483037782208  2.25812600033487 0.419909555242441  11.155109462351 0.0187492190441105  C 11.4304032128878 0.00633772832154023  11.711960722643 0  12 0  C 13.126130572115 0  14.1531853578665 0.0968741022220456  15.0889124316977 0.274609619483726  C 22.1300400239363 1.61202785788993  24 7.52798991458315  24 11.2  Z " fill-rule="nonzero" fill="#ff3399" stroke="none" fill-opacity="0.2" transform="matrix(1 0 0 1 1335 555 )" />
  </g>
</svg>