<?xml version="1.0" encoding="utf-8"?>
<svg version="1.1" xmlns:xlink="http://www.w3.org/1999/xlink" width="10px" height="82px" preserveAspectRatio="xMidYMin meet" viewBox="1343 473  8 82" xmlns="http://www.w3.org/2000/svg">
  <path d="M 1347 555  L 1347 483  A 5 5 0 0 1 1352 478 L 1494 478  A 5 5 0 0 1 1499 483 L 1499 717  A 3 3 0 0 1 1502 720 A 3 3 0 0 1 1499 723 L 1499 1089.56716417911  A 5 5 0 0 0 1504 1094.56716417911 L 1926 1094.56716417911  A 5 5 0 0 1 1931 1099.56716417911 L 1931 1317  A 5 5 0 0 0 1936 1322 L 2120 1322  " stroke-width="2" stroke="#ff3399" fill="none" stroke-opacity="0.56078431372549" />
</svg>