<?xml version="1.0" encoding="utf-8"?>
<svg version="1.1" xmlns:xlink="http://www.w3.org/1999/xlink" width="24px" height="32px" xmlns="http://www.w3.org/2000/svg">
  <g transform="matrix(1 0 0 1 -1309 -1079 )">
    <path d="M 24 11.2  C 24 14.5079965704547  22.7689303526095 17.2688510754024  20.985520086421 19.9350495339052  C 20.8158042464813 20.1887701243982  20.6412355284738 20.4414248899376  20.4622568108457 20.6936129650783  C 20.2408935066949 21.0055225950074  20.0127841918516 21.3167183250066  19.7790327457114 21.627936074673  C 17.3825450465306 24.8186308111461  14.39301598626 28.0116400228997  12 32  C 9.20383425343471 27.3397237557242  5.59323695663306 23.7653562450965  3.06594611267246 20.011738799399  C 2.89221121515288 19.7537018806115  2.72359566980867 19.4948178852256  2.56071597477853 19.2346758144821  C 1.02561010448721 16.7828931055676  0 14.2193599093365  0 11.2  C 0 7.16483037782211  2.25812600033487 0.419909555242384  11.155109462351 0.018749219044139  C 11.4304032128878 0.00633772832156865  11.711960722643 0  12 0  C 12.8094252791191 0  13.5676654580445 0.0500476535225971  14.277597655805 0.144196914575332  C 14.5553741109013 0.181034866238406  14.8257549218847 0.224624493012584  15.0889124316977 0.274609619483726  C 22.1300400239363 1.61202785788987  24 7.52798991458315  24 11.2  Z " fill-rule="nonzero" fill="#ff3399" stroke="none" fill-opacity="0.2" transform="matrix(1 0 0 1 1309 1079 )" />
  </g>
</svg>