<?xml version="1.0" encoding="utf-8"?>
<svg version="1.1" xmlns:xlink="http://www.w3.org/1999/xlink" width="29px" height="32px" xmlns="http://www.w3.org/2000/svg">
  <g transform="matrix(1 0 0 1 -1127 -539 )">
    <path d="M 29 11.2  C 29 14.5079965704547  27.5124575094031 17.2688510754024  25.3575034377588 19.9350495339052  C 25.1524301311649 20.1887701243981  24.9414929302391 20.4414248899376  24.7252269797719 20.6936129650782  C 21.7154569355018 24.2033106888326  17.6736014719436 27.6226186593878  14.5 32  C 11.1212997229003 27.3397237557243  6.75849465593162 23.7653562450966  3.70468488614589 20.011738799399  C 3.49475521830973 19.7537018806115  3.29101143435215 19.4948178852256  3.09419846952406 19.2346758144821  C 1.23927887625538 16.7828931055676  0 14.2193599093365  0 11.2  C 0 7.16483037782208  2.7285689170713 0.419909555242441  13.4790906003408 0.0187492190441105  C 13.8117372155727 0.00633772832154023  14.1519525398603 0  14.5 0  C 15.8607411079723 0  17.1017656407554 0.0968741022220456  18.2324358549681 0.274609619483726  C 26.7404650289231 1.61202785788993  29 7.52798991458315  29 11.2  Z " fill-rule="nonzero" fill="#ff3399" stroke="none" fill-opacity="0.2" transform="matrix(1 0 0 1 1127 539 )" />
  </g>
</svg>