<?xml version="1.0" encoding="utf-8"?>
<svg version="1.1" xmlns:xlink="http://www.w3.org/1999/xlink" width="30px" height="32px" xmlns="http://www.w3.org/2000/svg">
  <g transform="matrix(1 0 0 1 -1663 -363 )">
    <path d="M 30 11.2  C 30 14.5079965704547  28.4611629407618 17.2688510754024  26.2319001080263 19.9350495339052  C 26.0197553081017 20.1887701243981  25.8015444105922 20.4414248899376  25.5778210135571 20.6936129650782  C 22.4642657953467 24.2033106888326  18.2830360054589 27.6226186593878  15 32  C 12.3510763754797 28.4681018339727  9.11741972024714 25.5599189007048  6.33163879369647 22.7247265285197  C 5.44163178314363 21.8189334478575  4.59733890288504 20.9205904248919  3.83243264084058 20.011738799399  C 3.6152640189411 19.7537018806115  3.40449458726084 19.4948178852256  3.20089496847316 19.2346758144821  C 1.28201263060902 16.7828931055676  0 14.2193599093365  0 11.2  C 0 9.68114648460349  0.399913785346655 7.77837573527407  1.49176561504476 5.97450119356594  C 1.49196750439273 5.974167647342  1.4921694173978 5.9738341044993  1.49237135406253 5.97350056504095  C 3.30148692773037 2.98537837298869  7.00950543376734 0.268883326478573  13.9438868279387 0.0187492190441105  C 14.2880040161097 0.00633772832154023  14.6399509033037 0  15 0  C 16.4076632151438 0  17.6914816973331 0.0968741022220456  18.8611405396222 0.274609619483726  C 27.6625500299204 1.61202785788993  30 7.52798991458315  30 11.2  Z " fill-rule="nonzero" fill="#ff3399" stroke="none" fill-opacity="0.2" transform="matrix(1 0 0 1 1663 363 )" />
  </g>
</svg>