<?xml version="1.0" encoding="utf-8"?>
<svg version="1.1" xmlns:xlink="http://www.w3.org/1999/xlink" width="10px" height="165px" preserveAspectRatio="xMidYMin meet" viewBox="1138 374  8 165" xmlns="http://www.w3.org/2000/svg">
  <path d="M 1142 539  L 1142 483  A 3 3 0 0 0 1145 480 A 3 3 0 0 0 1142 477 L 1142 450  A 3 3 0 0 0 1145 447 A 3 3 0 0 0 1142 444 L 1142 384  A 5 5 0 0 1 1147 379 L 1613 379  A 3 3 0 0 1 1616 376 A 3 3 0 0 1 1619 379 L 1663 379  " stroke-width="2" stroke="#ff3399" fill="none" stroke-opacity="0.56078431372549" />
</svg>