<?xml version="1.0" encoding="utf-8"?>
<svg version="1.1" xmlns:xlink="http://www.w3.org/1999/xlink" width="10px" height="131px" preserveAspectRatio="xMidYMin meet" viewBox="1376 502  8 131" xmlns="http://www.w3.org/2000/svg">
  <path d="M 1296 507  L 1344 507  A 3 3 0 0 1 1347 504 A 3 3 0 0 1 1350 507 L 1375 507  A 5 5 0 0 1 1380 512 L 1380 623  A 5 5 0 0 0 1385 628 L 1464 628  A 3 3 0 0 1 1467 625 A 3 3 0 0 1 1470 628 L 1496 628  A 3 3 0 0 1 1499 625 A 3 3 0 0 1 1502 628 L 1544 628  A 3 3 0 0 1 1547 625 A 3 3 0 0 1 1550 628 L 1637 628  A 3 3 0 0 1 1640 625 A 3 3 0 0 1 1643 628 L 1655 628  " stroke-width="2" stroke="#ff3399" fill="none" stroke-opacity="0.56078431372549" />
</svg>